<svg id="Layer_1" data-name="Layer 1" xmlns="http://www.w3.org/2000/svg" viewBox="0 0 208.76 64.54"><defs><style>.cls-1{fill:#fff;}</style></defs><path class="cls-1" d="M184.32.19a24.37,24.37,0,1,0,24.37,24.37A24.38,24.38,0,0,0,184.32.19Zm0,36.56A12.19,12.19,0,1,1,196.5,24.56,12.19,12.19,0,0,1,184.32,36.75Z" transform="translate(0.07 -0.19)"/><path class="cls-1" d="M130.47,18.47a6.09,6.09,0,0,0-6.09,6.09h0a12.19,12.19,0,1,1-24.38,0h0a6.09,6.09,0,0,0-12.18,0h0a24.37,24.37,0,0,0,48.74,0h0A6.09,6.09,0,0,0,130.47,18.47ZM112.19,52.55a6.09,6.09,0,1,0,6.09,6.09A6.08,6.08,0,0,0,112.19,52.55Z" transform="translate(0.07 -0.19)"/><path class="cls-1" d="M60.86,18.47A24.46,24.46,0,0,0,45.15,24.2a11.7,11.7,0,0,0-2.57,3.59A11.83,11.83,0,0,0,40,24.2,24.37,24.37,0,0,0-.07,42.84a6.09,6.09,0,0,0,12.18,0,12.19,12.19,0,0,1,24.37,0,6.1,6.1,0,0,0,12.19,0,12.19,12.19,0,0,1,24.37,0,6.1,6.1,0,0,0,12.19,0A24.37,24.37,0,0,0,60.86,18.47Z" transform="translate(0.07 -0.19)"/><path class="cls-1" d="M154.39,6.28a6.1,6.1,0,0,0-12.19,0h0V42.84a6.1,6.1,0,0,0,12.19,0V6.28Z" transform="translate(0.07 -0.19)"/></svg>